<?xml version="1.0" encoding="UTF-8"?>
<svg id="Capa_1" data-name="Capa 1" xmlns="http://www.w3.org/2000/svg" viewBox="0 0 708.07 208.36">
  <defs>
    <style>
      .cls-1 {
        fill: none;
        stroke: #040505;
        stroke-miterlimit: 10;
        stroke-width: 2px;
      }

      .cls-2 {
        fill: #0c0d0d;
        stroke-width: 0px;
      }

      .cls-3 {
        font-size: 24px;
      }

      .cls-3, .cls-4 {
        fill: #1d1d1b;
        font-family: CenturyGothic, 'Century Gothic';
      }

      .cls-4 {
        font-size: 48px;
      }
    </style>
  </defs>
  <text class="cls-4" transform="translate(185.14 105.28)"><tspan x="0" y="0">DR. PABLO VALLEJO Y.</tspan></text>
  <text class="cls-3" transform="translate(190 146.59)"><tspan x="0" y="0">CIRUGIA DE CADERA Y RODILLA</tspan></text>
  <g>
    <path class="cls-2" d="M53.89,132.25c0-2.83.03-5.37-.01-7.92-.03-1.6.48-2.89,1.65-4,1.74-1.65,3.4-3.39,5.12-5.05.48-.47.53-.77,0-1.24-.7-.61-1.34-1.31-2-1.98-1.86-1.87-1.93-4.42-.12-6.32,1.37-1.44,2.8-2.82,4.21-4.22.24-.24.49-.56.78-.63,1.57-.37,1.45-1.53,1.4-2.73-.15-3.67-.23-7.34-.41-11.01-.13-2.59-1.49-4.49-3.61-5.89-.59-.39-1.2-.76-1.84-1.07-7.65-3.73-12.03-10.05-14.4-18-4.53-15.24,4.63-33.14,23.29-35.89,1.75-.26,3.5-.4,5.26-.4,8.28,0,16.57.02,24.85-.01,4.05-.02,6.8,1.81,8.48,5.47,3.37,7.37,6.84,14.7,10.15,22.1,1.04,2.33,2.67,3.57,5.13,3.95,1.81.28,3.59.72,5.39,1.07,3.49.69,5.55,3.25,5.6,6.96.05,3.62-2.13,6.54-5.42,7.29-1.78.41-3.58.79-5.34,1.26-2.12.56-3.37,2.02-3.4,4.19-.07,4.83-.06,9.67-.02,14.5.01,1.86.92,3.37,2.2,4.65,4.31,4.33,8.64,8.64,12.97,12.95,6.45,6.43,12.94,12.83,19.35,19.29,7.3,7.35,7.17,18.78-.22,26.08-3.55,3.5-7.04,7.06-10.58,10.57-2.86,2.83-6.18,4.82-10.21,5.47-5.21.84-9.87-.42-13.69-4.05-5.05-4.8-9.92-9.79-14.87-14.7-3.29-3.26-4.04-7.27-3.5-11.69.52-4.35.97-8.71,1.48-13.06.09-.75-.08-.98-.86-.81-2.16.46-4.32.88-6.49,1.26-.48.08-.7.23-.85.68-.2.6-.58,1.12-1.04,1.58-1.36,1.35-2.7,2.71-4.06,4.05-2.07,2.03-4.6,2.03-6.64,0-3.32-3.31-6.63-6.62-9.93-9.95-.46-.47-.67-.53-1.28-.06-2.52,1.91-3.49,4.3-3.1,7.46.25,1.99.06,4.04.03,6.07,0,.5.11.87.5,1.17.24.18.44.4.66.61,1.23,1.14,2.22,2.8,3.75,3.31,1.52.51,3.34.19,5.02.13,2.84-.12,5.44.39,7.54,2.48.26.26.53.53.75.84.47.67.81,1.6,1.87.65.3-.27.41.09.51.33.59,1.39,1,2.82,1,4.34,0,10.2-.02,20.39-.02,30.59,0,.64-.03,1.12-.87,1.03-.23-.03-.57-.08-.67.26-.19.65-.57.43-1.04.36-1.08-.16-1.28-.71-1.28-1.73.04-9.93.02-19.87.03-29.8,0-4.15-2.66-6.82-6.79-6.82-1.11,0-2.22,0-3.17,0,.87.97,1.72,2,2.66,2.95.7.71,1.07,1.47,1.07,2.48-.01,10.46-.01,20.92.02,31.37,0,.75-.27.84-.9.83-1.58-.02-1.58.01-1.58-1.6,0-9.82-.01-19.64.03-29.46,0-.87-.23-1.05-1.05-1.02-1.83.07-3.68.09-5.51.01-.9-.04-1.01.28-1.01,1.07.03,9.97.02,19.94,0,29.91,0,.36.27.95-.32,1.04-.65.1-1.35.06-2-.07-.26-.05-.13-.54-.13-.82,0-9.45,0-18.89,0-28.34,0-.71-.02-1.43.02-2.14.03-.49-.16-.65-.63-.65-3.49.02-6.97.02-10.46.01-.43,0-.62.12-.58.57.03.26,0,.52,0,.79,0,9.9.01,19.79,0,29.69,0,.32.28.88-.24.95-.69.11-1.44.2-2.09-.08-.28-.12-.11-.63-.11-.95,0-9.9-.03-19.79.01-29.69,0-1.11-.27-1.37-1.34-1.31-1.72.1-3.45.08-5.17,0-.86-.03-1.03.24-1.03,1.06.03,9.97,0,19.94.07,29.91.01,1.35-.71,1.03-1.44,1.11-.85.09-1.11-.16-1.11-1.07.03-10.16.04-20.32-.02-30.47,0-1.46.39-2.54,1.47-3.54,3.21-2.98,6.35-6.05,9.51-9.09.73-.7.95-3.41.28-4.17-2.93-3.28-6.35-5.82-10.79-6.62-4.35-.79-7.78.91-10.44,4.26-2.36,2.98-3.5,6.5-4.09,10.19-1.6,10.08-.07,19.82,3.23,29.37,1.18,3.4,2.77,6.61,4.53,9.74.61,1.09-.27,1.08-.73,1.38-.47.3-.92.86-1.47-.13-3.92-7.02-6.51-14.5-7.79-22.43-.79-4.86-1.13-9.75-.7-14.67.48-5.44,1.67-10.67,5.15-15.06,4.14-5.24,10.27-6.69,16.41-4.03,2.56,1.11,4.81,2.68,7.03,4.74ZM84.91,28.38h0c-4.31,0-8.62-.08-12.93.01-6.67.14-12.65,2.28-17.6,6.8-9.33,8.53-11.24,22.6-3.77,34.32,2.6,4.07,6.25,6.86,10.51,9.03,4.08,2.08,6.01,5.52,6.03,10.11.01,3.63.16,7.27.25,10.9,0,.36-.1.76.34.99,1.63.86,2.74,2.3,4,3.57.53.54.8.62,1.37.03,1.85-1.91,3.76-3.77,5.67-5.62,1.33-1.3,2.26-1.29,3.55,0,1.2,1.19,2.4,2.37,3.56,3.6.36.38.6.48.94.02.26-.35.47-.59.94-.11,2.56,2.63,5.18,5.21,7.76,7.83,1.11,1.12,1.08,2.04-.03,3.21-.78.81-1.56,1.62-2.38,2.39-.41.39-.68.7-.05,1.1.6.37.31.68-.05,1.02-1.04,1.02-2.01,2.13-3.12,3.08-.76.66-.58,1.02.05,1.63,1.1,1.06,2.36,2,3.13,3.35.31.55.61.62,1.15.51,4.84-.95,9.69-1.83,14.52-2.83,3.58-.74,6.68.02,9.28,2.62,3.81,3.82,7.64,7.63,11.43,11.47,3.57,3.62,3.57,8.46.03,12.11-1.17,1.21-2.38,2.39-3.58,3.57-3.31,3.28-8.46,3.34-11.82.11-1.49-1.43-2.94-2.89-4.37-4.38-1.89-1.97-2.81-4.33-2.54-7.06.46-4.73.99-9.46,1.53-14.18.19-1.69.25-1.69-1.37-1.41-.74.13-1.46.36-2.2.4-.85.05-.99.47-1.07,1.21-.47,4.54-.95,9.08-1.52,13.61-.45,3.55-.03,6.85,2.58,9.49,4.98,5.04,10.01,10.03,15.07,14.99,2.15,2.11,4.83,3.24,7.83,3.52,4.61.42,8.57-1.15,11.86-4.29,3.83-3.64,7.43-7.52,11.27-11.15,6.3-5.94,6.64-16.39.2-22.73-5.69-5.6-11.32-11.26-16.98-16.89-5.07-5.05-10.15-10.09-15.22-15.15-1.82-1.81-2.95-3.98-2.98-6.58-.05-4.76-.07-9.52,0-14.28.05-3.45,2.23-6.03,5.57-6.81,1.71-.4,3.44-.72,5.14-1.14,2.07-.51,3.49-2.57,3.47-4.93-.01-2.43-1.14-3.97-3.4-4.49-1.86-.43-3.73-.78-5.6-1.12-3.34-.61-5.6-2.4-7.02-5.58-3.31-7.47-6.82-14.85-10.24-22.27-1.14-2.47-3.06-3.65-5.78-3.64-4.46.03-8.92,0-13.38,0ZM109.61,141.71c-.15,2.19.48,4.15,2.11,5.76,1.34,1.31,2.65,2.65,4,3.95,2.46,2.34,5.89,2.34,8.37-.02,1.3-1.24,2.57-2.52,3.82-3.81,2.25-2.33,2.28-5.88,0-8.19-3.9-3.95-7.84-7.85-11.78-11.76-1.09-1.08-2.42-1.74-3.92-2.05-.54-.11-.88-.08-.96.65-.52,5.14-1.09,10.28-1.65,15.47ZM93.5,111.35c-.08-.09-.16-.21-.27-.32-1.87-1.89-3.76-3.76-5.62-5.66-.37-.38-.61-.31-.88.07-.34.5-.61.31-.96-.05-1.53-1.54-3.12-3.02-4.64-4.58-.49-.5-.78-.48-1.25,0-1.6,1.63-3.21,3.25-4.88,4.81-.69.65-.81,1.01-.04,1.76,3.5,3.38,6.93,6.84,10.38,10.28.66.66,1.31,1.81,1.99,1.83.82.03,1.39-1.22,2.13-1.84.47-.4.71-.76.09-1.22-.52-.38-.33-.68.07-1.06,1.17-1.11,2.3-2.25,3.44-3.39.17-.17.44-.3.43-.65ZM69.21,122.73c-.16-.19-.28-.38-.44-.53-1.79-1.81-3.61-3.6-5.38-5.43-.42-.43-.62-.16-.89.11-1.75,1.74-3.49,3.5-5.27,5.22-.43.41-.41.65,0,1.06,1.78,1.72,3.54,3.46,5.26,5.23.48.49.74.36,1.15-.06,1.68-1.71,3.39-3.39,5.09-5.09.16-.16.31-.33.48-.51ZM56.67,125.89l-.3.21c0,3.82,0,7.64,0,11.45,0,.48.04.76.65.76,2.4-.03,4.8-.02,7.2-.02.3,0,.65.04.65-.41,0-2.36,0-4.72,0-7.19-1.73,1.07-2.51,1-3.83-.31-1.48-1.47-2.91-2.99-4.36-4.49Z"/>
    <path class="cls-2" d="M110,109.98c-.07,4.39-1.16,8.05-3.9,11.09-.3.33-.52,1.38-1.41.52-1.26-1.22-1.28-1.19-.44-2.2,3.41-4.09,4.1-8.68,2.49-13.68-.57-1.77-1.62-3.28-2.93-4.59-3.71-3.71-7.41-7.43-11.19-11.07-4.78-4.62-12.71-4.89-18.14-.7-1.47,1.14-1.51,1.12-2.65-.35-.26-.34-.29-.52.06-.82,3.8-3.19,8.15-4.67,13.1-4.15,4.05.43,7.46,2.18,10.32,5.13,3.3,3.42,6.72,6.74,10.11,10.08,3.1,3.06,4.52,6.79,4.59,10.72Z"/>
    <path class="cls-2" d="M88.35,38.39c5.16.46,9.85,3.17,12.31,8.86,3.2,7.39,6.15,14.9,9.2,22.36,1.36,3.31,2.67,6.65,4.1,9.93.57,1.31-.5,1.15-1.07,1.5-.7.43-.95.18-1.25-.55-4.32-10.64-8.64-21.28-13.05-31.89-2.14-5.15-6.98-8.06-12.6-7.75-.55.03-.8,0-.85-.65-.14-1.78-.09-1.84,3.2-1.8Z"/>
    <path class="cls-2" d="M70.39,71c-7.38-.46-13.91-6.51-15.17-13.99-.84-4.98.26-9.49,3.23-13.55.25-.34.54-1.17,1.12-.4.41.53,1.82.62.85,1.9-5.56,7.34-3.21,17.97,5.14,22.2,1.51.77,3.14,1.13,4.82,1.39,1.36.21.38,1.32.6,1.98.14.41-.16.62-.58.48Z"/>
  </g>
  <polyline class="cls-1" points="167.5 59.82 167.5 1 1 1 1 207.36 167.5 207.36 167.5 159.36 559.86 159.36"/>
</svg>